<svg xmlns="http://www.w3.org/2000/svg" viewBox="0 0 128 128">
  <defs>
    <linearGradient id="g" x1="0" y1="0" x2="1" y2="1">
      <stop offset="0" stop-color="#635BFF"/><stop offset="1" stop-color="#9B8CFF"/>
    </linearGradient>
  </defs>
  <rect width="128" height="128" rx="36" fill="url(#g)"/>
  <path d="M29 32c0-5 4-9 9-9h33c10 0 19 8 19 19v54H43c-8 0-14-6-14-14V32Z" fill="#fff" opacity=".96"/>
  <path d="M38 31v55c0 5 4 9 9 9h43" fill="none" stroke="#D9D7FF" stroke-width="5"/>
  <path d="M48 45h27M48 59h22" stroke="#635BFF" stroke-width="6" stroke-linecap="round"/>
  <path d="M91 49c6 5 8 13 5 20M101 42c10 10 13 25 7 38" fill="none" stroke="#fff" stroke-width="5" stroke-linecap="round"/>
</svg>
